<svg width="96" height="96" xmlns="http://www.w3.org/2000/svg" xmlns:xlink="http://www.w3.org/1999/xlink" overflow="hidden"><defs><clipPath id="clip0"><rect x="0" y="0" width="96" height="96"/></clipPath></defs><g clip-path="url(#clip0)"><path d="M51.023 57.5C51.023 52.628 40.723 50 31.023 50 21.323 50 11.023 52.628 11.023 57.5 11.0249 57.8651 11.086 58.2275 11.204 58.573L11.404 59.638C6.724 66.474 6.004 73.738 9.611 78.226 11.77 80.917 15.181 82.344 19.356 82.344 20.0753 82.3428 20.794 82.3028 21.509 82.224 27.0064 81.4582 32.1789 79.1661 36.439 75.608 37.5259 74.7325 38.5609 73.7946 39.539 72.799L39.801 72.529 39.884 72.574C40.6551 73.0021 41.5629 73.1123 42.414 72.881 44.2848 72.3944 45.4069 70.4834 44.9203 68.6127 44.4337 66.7419 42.5227 65.6198 40.652 66.1064 39.4558 66.4175 38.5124 67.3364 38.17 68.524 37.9177 69.3504 37.9951 70.2424 38.386 71.013L38.42 71.085 38.269 71.241C37.2976 72.2366 36.2681 73.1739 35.186 74.048 31.2234 77.3677 26.4103 79.5113 21.292 80.236 19.9442 80.3882 18.5825 80.3674 17.24 80.174L13.769 61.434C17.478 63.77 24.392 65 31.023 65 37.654 65 44.568 63.77 48.277 61.434L44.045 84.29C42.978 89.258 35.428 90 31.023 90 25.723 90 19.213 89.023 18.05 84.459 17.3447 84.4112 16.6432 84.3176 15.95 84.179L16.05 84.72C16.8 88.041 20 92 31.023 92 42.108 92 45.286 88.036 46.006 84.682L50.841 58.573C50.9593 58.2275 51.0208 57.8652 51.023 57.5ZM41.115 68.054C41.9157 67.8309 42.7456 68.299 42.9688 69.0997 43.0424 69.3638 43.0424 69.6429 42.969 69.907 42.8312 70.4129 42.4359 70.8082 41.93 70.946 41.1331 71.1725 40.3035 70.7102 40.077 69.9133 40.0008 69.6452 40.0008 69.3611 40.077 69.093 40.2148 68.5874 40.6096 68.1923 41.115 68.054ZM11.168 76.974C8.422 73.552 8.768 68.055 11.938 62.534L15.111 79.667C13.5681 79.161 12.2007 78.2271 11.168 76.974ZM31.023 63C21.435 63 14.112 60.485 13.141 58.044L13.031 57.453C13.122 54.869 20.782 52 31.023 52 41.264 52 48.923 54.869 49.014 57.453L48.905 58.044C47.934 60.485 40.61 63 31.023 63Z" fill="#00FFFF"/><path d="M84.455 71.271 87.761 71.897 88.23 69.397C88.7165 66.79 86.9994 64.2817 84.393 63.792L79.332 62.919 76.78 59.17 86.937 5 84.9 5 74.925 58.209 71.312 57.475 81.175 5 79.14 5 69.24 57.666 65.485 60.222 60.405 59.258C57.8046 58.7751 55.3024 60.4833 54.805 63.081L54.338 65.575 58.987 66.447C58.662 70.46 57 79.211 49.139 89.389L47.9 91 55.83 91 56.109 90.458C56.8103 89.1023 57.6125 87.8013 58.509 86.566 58.538 86.526 58.545 86.532 58.525 86.577 57.911 87.977 57.543 89.485 58.397 90.606L58.697 91 64.483 91C65.829 91 66.871 89.4 68.19 87.375 68.8132 86.3293 69.5449 85.3522 70.373 84.46 70.385 84.449 70.392 84.453 70.389 84.47 70.2668 85.0011 70.1159 85.5252 69.937 86.04 69.466 87.477 68.98 88.963 69.577 90.032 69.8502 90.5155 70.3184 90.858 70.862 90.972L75.062 91 75.212 90.989C77.653 90.619 78.248 87.57 78.774 84.88 78.934 84.062 79.115 83.138 79.346 82.38 79.355 82.351 79.364 82.352 79.366 82.38 79.5048 84.8989 79.5008 87.4236 79.354 89.942L79.3 91 88.456 91 87.891 89.621C85.618 83.7702 84.4528 77.5478 84.455 71.271ZM56.671 63.978 56.771 63.444C57.0455 61.9384 58.4886 60.9405 59.9941 61.215 60.0098 61.2179 60.0254 61.2209 60.041 61.224L65.928 62.341 70.361 59.322 75.123 60.291 78.156 64.746 84.044 65.76C85.5482 66.0328 86.5464 67.4733 86.2737 68.9775 86.2703 68.996 86.2667 69.0145 86.263 69.033L86.163 69.559 83.097 68.979 61.075 64.806 61.075 64.806 60.283 64.658 60.225 64.647 60.225 64.647ZM81.4 89C81.789 80.077 80.763 79.523 80.261 79.252 79.8363 79.0205 79.3153 79.0597 78.93 79.352 77.639 80.252 77.236 82.311 76.809 84.495 76.437 86.395 75.976 88.76 74.969 88.995L71.3 88.995C71.3525 88.1922 71.5327 87.403 71.834 86.657 72.346 85.091 72.927 83.317 71.588 82.514 69.677 81.422 68.065 83.889 66.51 86.279 65.9478 87.2663 65.2656 88.1802 64.479 89L59.879 89C60.1048 87.8749 60.5287 86.7988 61.131 85.822 61.848 84.471 62.323 83.579 61.741 82.822 61.3819 82.3873 60.7889 82.2242 60.258 82.414 58.069 82.986 55.558 87.261 54.617 88.995L51.925 88.995C58.946 79.262 60.596 70.913 60.958 66.814L82.458 70.888C82.4216 77.0555 83.4507 83.1829 85.5 89Z" fill="#00FFFF"/></g></svg>