<svg width="96" height="96" xmlns="http://www.w3.org/2000/svg" xmlns:xlink="http://www.w3.org/1999/xlink" overflow="hidden"><defs><clipPath id="clip0"><rect x="0" y="0" width="96" height="96"/></clipPath></defs><g clip-path="url(#clip0)"><path d="M73 18.551 69 18.551 69 10C69.0002 8.89543 68.105 7.99982 67.0004 7.99959 66.8659 7.99956 66.7318 8.0131 66.6 8.04L21.6 17.224C20.6687 17.4141 19.9998 18.2335 20 19.184L20 86C20 87.1046 20.8954 88 22 88L73 88C74.1046 88 75 87.1046 75 86L75 20.551C75 19.4464 74.1046 18.551 73 18.551ZM65 16.551 65 18.551 35.1 18.551 65 12.45ZM24 22.551 71 22.551 71 84 24 84Z" fill="#00FFFF"/><path d="M58.475 45.75C63.354 40.273 61.581 38.362 61.581 38.362 61.0007 37.7708 60.051 37.7619 59.4598 38.3422 59.4531 38.3488 59.4465 38.3553 59.44 38.362L45.208 52.594 32.816 64.16C31.9346 65.0415 31.9346 66.4706 32.816 67.352 33.6974 68.2335 35.1266 68.2335 36.008 67.352L47.308 54.96C47.871 55.223 49.361 55.96 49.808 55.473Z" fill="#00FFFF"/><path d="M62.313 64.16 52.408 54.819 50.918 56.492C50.5434 56.8876 50.0266 57.1176 49.482 57.131L59.121 67.352C60.0024 68.2334 61.4316 68.2334 62.313 67.352 63.1944 66.4706 63.1944 65.0414 62.313 64.16Z" fill="#00FFFF"/><path d="M42.448 51.843C42.9121 51.7508 43.3882 51.7363 43.857 51.8L44.164 51.514 46.764 48.914C46.6969 48.4391 46.7107 47.9563 46.805 47.486 47.068 45.871 46.429 43.994 44.514 42.078 42.1415 39.8287 39.5737 37.7947 36.841 36L36.177 36.664 43.745 44.232C43.9659 44.4529 43.9659 44.8111 43.745 45.032 43.5241 45.2529 43.1659 45.2529 42.945 45.032L35.38 37.46 34.318 38.523 41.886 46.09C42.1069 46.3109 42.1069 46.6691 41.886 46.89 41.6651 47.1109 41.3069 47.1109 41.086 46.89L33.518 39.322 32.456 40.384 40.024 47.952C40.2449 48.1729 40.2449 48.5311 40.024 48.752 39.8031 48.9729 39.4449 48.9729 39.224 48.752L31.657 41.184 31 41.842C32.8184 44.5592 34.8377 47.1364 37.041 49.552 38.955 51.467 40.833 52.106 42.448 51.843Z" fill="#00FFFF"/></g></svg>